<?xml version="1.0" standalone="no"?>
<!DOCTYPE svg PUBLIC "-//W3C//DTD SVG 20010904//EN"
 "http://www.w3.org/TR/2001/REC-SVG-20010904/DTD/svg10.dtd">
<svg version="1.0" xmlns="http://www.w3.org/2000/svg"
 width="300.000000pt" height="300.000000pt" viewBox="0 0 300.000000 300.000000"
 preserveAspectRatio="xMidYMid meet">
<metadata>
Created by potrace 1.11, written by Peter Selinger 2001-2013
</metadata>
<g transform="translate(0.000000,300.000000) scale(0.100000,-0.100000)"
fill="#000000" stroke="none">
<path d="M1378 2995 c-2 -1 -32 -5 -68 -9 -159 -16 -368 -85 -536 -177 -167
-93 -290 -195 -439 -367 l-19 -23 29 11 c16 6 57 10 92 9 78 -3 147 -32 187
-80 27 -31 88 -149 128 -244 61 -148 318 -900 318 -932 0 -58 96 114 241 432
168 366 253 491 379 557 51 26 139 30 201 9 90 -30 153 -140 184 -321 4 -19
13 -71 21 -115 8 -44 17 -93 20 -110 7 -38 32 -141 45 -180 5 -16 28 -91 50
-165 72 -241 82 -271 90 -263 9 10 220 380 276 483 22 41 66 121 97 178 32 57
75 151 97 210 22 59 54 131 70 161 l29 54 -51 96 c-177 330 -489 595 -840 710
-98 32 -109 35 -194 51 -27 5 -63 12 -80 15 -31 6 -321 15 -327 10z"/>
<path d="M156 2158 c-103 -215 -148 -409 -149 -643 -1 -164 5 -227 35 -355 97
-422 395 -802 776 -994 124 -62 316 -127 422 -142 178 -26 432 -25 530 1 8 2
29 7 45 9 90 16 311 96 385 140 19 12 46 27 60 34 59 30 211 147 283 218 88
86 185 208 241 301 81 135 157 328 182 458 2 11 6 31 9 45 7 35 13 89 20 178
l6 77 -96 -155 c-104 -167 -266 -434 -360 -595 -96 -164 -150 -208 -268 -220
-97 -9 -224 34 -252 85 -40 71 -95 204 -114 275 -12 44 -29 103 -37 130 -27
95 -134 504 -134 512 0 4 -31 -50 -68 -122 -37 -71 -113 -202 -169 -290 -55
-88 -121 -201 -146 -252 -41 -82 -46 -96 -41 -140 5 -40 2 -53 -16 -76 -84
-106 -353 -110 -446 -5 -12 13 -49 111 -88 233 -97 300 -108 335 -161 480 -48
131 -168 443 -185 480 -5 11 -34 76 -64 145 -77 178 -134 300 -141 300 -2 0
-29 -51 -59 -112z"/>
</g>
</svg>
